TITLE ""
FILE "Step2_Track28.mp3" MP3
  TRACK 01 AUDIO
    TITLE "Step2_Track28_01"
    INDEX 01 00:00:00
  TRACK 02 AUDIO
    TITLE "Step2_Track28_02"
    INDEX 01 00:00:24
  TRACK 03 AUDIO
    TITLE "Step2_Track28_03"
    INDEX 01 00:01:61
  TRACK 04 AUDIO
    TITLE "Step2_Track28_04"
    INDEX 01 00:02:48
  TRACK 05 AUDIO
    TITLE "Step2_Track28_05"
    INDEX 01 00:03:46
  TRACK 06 AUDIO
    TITLE "Step2_Track28_06"
    INDEX 01 00:03:63
  TRACK 07 AUDIO
    TITLE "Step2_Track28_07"
    INDEX 01 00:05:74
  TRACK 08 AUDIO
    TITLE "Step2_Track28_08"
    INDEX 01 00:06:11
  TRACK 09 AUDIO
    TITLE "Step2_Track28_09"
    INDEX 01 00:07:08
  TRACK 10 AUDIO
    TITLE "Step2_Track28_10"
    INDEX 01 00:07:14
  TRACK 11 AUDIO
    TITLE "Step2_Track28_11"
    INDEX 01 00:09:56
  TRACK 12 AUDIO
    TITLE "Step2_Track28_12"
    INDEX 01 00:10:20
  TRACK 13 AUDIO
    TITLE "Step2_Track28_13"
    INDEX 01 00:11:16
  TRACK 14 AUDIO
    TITLE "Step2_Track28_14"
    INDEX 01 00:11:18
  TRACK 15 AUDIO
    TITLE "Step2_Track28_15"
    INDEX 01 00:13:62
  TRACK 16 AUDIO
    TITLE "Step2_Track28_16"
    INDEX 01 00:14:32
  TRACK 17 AUDIO
    TITLE "Step2_Track28_17"
    INDEX 01 00:15:29
  TRACK 18 AUDIO
    TITLE "Step2_Track28_18"
    INDEX 01 00:15:31
  TRACK 19 AUDIO
    TITLE "Step2_Track28_19"
    INDEX 01 00:17:60
  TRACK 20 AUDIO
    TITLE "Step2_Track28_20"
    INDEX 01 00:18:10
  TRACK 21 AUDIO
    TITLE "Step2_Track28_21"
    INDEX 01 00:19:04
  TRACK 22 AUDIO
    TITLE "Step2_Track28_22"
    INDEX 01 00:19:19
  TRACK 23 AUDIO
    TITLE "Step2_Track28_23"
    INDEX 01 00:21:52
  TRACK 24 AUDIO
    TITLE "Step2_Track28_24"
    INDEX 01 00:21:63
  TRACK 25 AUDIO
    TITLE "Step2_Track28_25"
    INDEX 01 00:22:67
  TRACK 26 AUDIO
    TITLE "Step2_Track28_26"
    INDEX 01 00:23:07
  TRACK 27 AUDIO
    TITLE "Step2_Track28_27"
    INDEX 01 00:26:19
  TRACK 28 AUDIO
    TITLE "Step2_Track28_28"
    INDEX 01 00:26:33
  TRACK 29 AUDIO
    TITLE "Step2_Track28_29"
    INDEX 01 00:27:39
  TRACK 30 AUDIO
    TITLE "Step2_Track28_30"
    INDEX 01 00:27:44
  TRACK 31 AUDIO
    TITLE "Step2_Track28_31"
    INDEX 01 00:29:73
  TRACK 32 AUDIO
    TITLE "Step2_Track28_32"
    INDEX 01 00:30:06
  TRACK 33 AUDIO
    TITLE "Step2_Track28_33"
    INDEX 01 00:30:68
  TRACK 34 AUDIO
    TITLE "Step2_Track28_34"
    INDEX 01 00:31:11
  TRACK 35 AUDIO
    TITLE "Step2_Track28_35"
    INDEX 01 00:33:29
  TRACK 36 AUDIO
    TITLE "Step2_Track28_36"
    INDEX 01 00:33:47
  TRACK 37 AUDIO
    TITLE "Step2_Track28_37"
    INDEX 01 00:34:48
  TRACK 38 AUDIO
    TITLE "Step2_Track28_38"
    INDEX 01 00:34:50
  TRACK 39 AUDIO
    TITLE "Step2_Track28_39"
    INDEX 01 00:36:59
  TRACK 40 AUDIO
    TITLE "Step2_Track28_40"
    INDEX 01 00:36:65
  TRACK 41 AUDIO
    TITLE "Step2_Track28_41"
    INDEX 01 00:37:60
  TRACK 42 AUDIO
    TITLE "Step2_Track28_42"
    INDEX 01 00:37:64
  TRACK 43 AUDIO
    TITLE "Step2_Track28_43"
    INDEX 01 00:39:40
